<?xml version="1.0" encoding="utf-8"?>
<!-- Generator: Adobe Illustrator 27.1.1, SVG Export Plug-In . SVG Version: 6.00 Build 0)  -->
<svg version="1.1" id="Layer_1" xmlns="http://www.w3.org/2000/svg" xmlns:xlink="http://www.w3.org/1999/xlink" x="0px" y="0px"
	 viewBox="0 0 34.1 46" style="enable-background:new 0 0 34.1 46;" xml:space="preserve">
<style type="text/css">
	.st0{fill:none;stroke:#F5A018;stroke-width:1.5;}
</style>
<path id="Layer_2_00000092431144745784285970000001917386071455724723_" class="st0" d="M27.5,22.1c-0.5-0.5-1.3-0.6-1.8-0.1
	c0,0,0,0,0,0l-0.1,0.1c-0.8,0.8-1.8,1.5-2.8,2.1l-2.7-6.3c1.5-1,2.3-2.7,2.3-4.4c0-3-2.4-5.4-5.4-5.4s-5.4,2.4-5.4,5.4
	c0,1.8,0.9,3.4,2.3,4.5l-2.7,6.2c-1-0.6-2-1.3-2.8-2.1C8,21.5,7.2,21.5,6.7,22c0,0,0,0,0,0l-0.1,0.1c-0.5,0.5-0.5,1.4,0,2
	c1.1,1.1,2.3,2,3.6,2.7l-2.2,5l-0.7,5.8c0,0.2,0.1,0.3,0.3,0.3c0,0,0,0,0,0c0.1,0,0.2-0.1,0.3-0.1l4.6-10.1c1,0.4,2.1,0.6,3.2,0.7
	v0.7c0,0.8,0.6,1.4,1.4,1.4s1.4-0.6,1.4-1.4v-0.7c1.1-0.1,2.2-0.3,3.3-0.7l4.6,10.1c0.1,0.3,0.7,0.2,0.7-0.2l-0.8-5.8l-2.2-5
	c1.3-0.7,2.5-1.7,3.6-2.7C28.1,23.5,28.1,22.6,27.5,22.1z M17.1,10.8c1.5,0,2.7,1.2,2.7,2.7s-1.2,2.7-2.7,2.7s-2.7-1.2-2.7-2.7
	C14.4,12,15.6,10.8,17.1,10.8z M18.4,25.6V25c0-0.8-0.6-1.4-1.4-1.4s-1.4,0.6-1.4,1.4v0.5c-0.7-0.1-1.4-0.2-2-0.4l2.8-6.3h1.2
	l2.9,6.3C19.8,25.4,19.1,25.5,18.4,25.6z"/>
</svg>
