<?xml version="1.0" encoding="utf-8"?>
<!-- Generator: Adobe Illustrator 27.1.1, SVG Export Plug-In . SVG Version: 6.00 Build 0)  -->
<svg version="1.1" id="Layer_1" xmlns="http://www.w3.org/2000/svg" xmlns:xlink="http://www.w3.org/1999/xlink" x="0px" y="0px"
	 viewBox="0 0 51.8 51.9" style="enable-background:new 0 0 51.8 51.9;" xml:space="preserve">
<style type="text/css">
	.st0{fill:#F5A018;stroke:#F5A018;stroke-width:0.8;}
</style>
<g id="architecture" transform="translate(-3.8 -3.8)">
	<g id="Group_25" transform="translate(4 4)">
		<path id="Path_7" class="st0" d="M23,22.4c0.3,0,0.5-0.2,0.5-0.5c0,0,0,0,0-0.1c0-1.2-0.9-2.2-2.1-2.2c-1.2,0-2.2,0.9-2.2,2.1
			c0,0,0,0.1,0,0.1c0,0.3,0.2,0.5,0.5,0.5c0.3,0,0.5-0.2,0.5-0.5c0,0,0,0,0,0c0-0.6,0.5-1.1,1.1-1.1c0.6,0,1.1,0.5,1.1,1.1
			C22.4,22.2,22.6,22.4,23,22.4C22.9,22.4,22.9,22.4,23,22.4z"/>
		<path id="Path_8" class="st0" d="M28.9,26.4c0.2-0.2,0.1-0.6-0.2-0.7c-0.2-0.2-0.6-0.1-0.7,0.2c0,0,0,0,0,0.1
			c-0.4,0.9-1.3,1.4-2.3,1.4c-0.9,0-1.8-0.5-2.2-1.3c-0.2-0.2-0.5-0.3-0.7-0.2c-0.2,0.1-0.3,0.4-0.2,0.7c0.9,1.7,3,2.4,4.7,1.6
			C28,27.7,28.5,27.2,28.9,26.4L28.9,26.4z"/>
		<path id="Path_9" class="st0" d="M28.4,22.4c0.3,0,0.5-0.2,0.5-0.5c0,0,0,0,0-0.1c0-0.6,0.5-1.1,1.1-1.1c0.6,0,1.1,0.5,1.1,1.1
			c0,0.3,0.2,0.5,0.5,0.5c0.3,0,0.5-0.2,0.5-0.5c0-1.2-0.9-2.2-2.1-2.2c-1.2,0-2.2,0.9-2.2,2.1c0,0,0,0.1,0,0.1
			C27.8,22.2,28,22.4,28.4,22.4C28.3,22.4,28.4,22.4,28.4,22.4z"/>
		<path id="Path_10" class="st0" d="M50,47.5c-0.4-3.3-2.8-5.9-6-6.8l-3.2-0.9h-0.1l-0.1-0.2c0-0.2-0.2-0.3-0.3-0.4l-7.1-2.3
			c0-0.1,0-0.3-0.1-0.4l-1.6-2.8c-0.2-0.3-0.5-0.3-0.8-0.2L30,33.9v-2.3l0,0c3-1.6,4.9-4.7,4.9-8.1h0.5c1.5,0,2.7-1.2,2.7-2.7
			c0,0,0,0,0-0.1c0-0.7-0.3-1.3-0.7-1.8c0.8-0.4,1.2-1.1,1.2-1.9c0-1-0.7-1.9-1.6-2.1v-1.6c0-2.8-1.2-5.6-3.2-7.5V4
			c0-0.9-0.7-1.6-1.6-1.6c0,0,0,0-0.1,0c-0.8,0-1.5,0.5-1.6,1.3c-0.9-0.4-1.8-0.6-2.8-0.7V2.9c0-0.9-0.7-1.6-1.6-1.6c0,0,0,0-0.1,0
			h-1.1c-0.9,0-1.6,0.7-1.6,1.6c0,0,0,0,0,0.1V3c-0.9,0.1-1.9,0.3-2.8,0.7c-0.1-0.8-0.8-1.3-1.6-1.3c-0.9,0-1.6,0.7-1.6,1.6
			c0,0,0,0,0,0.1v1.7c-2.1,2-3.2,4.7-3.2,7.5v1.6c-1.2,0.3-1.9,1.5-1.6,2.6c0.2,0.6,0.6,1.1,1.2,1.4c-0.5,0.5-0.7,1.2-0.7,1.8
			c0,1.5,1.2,2.7,2.7,2.7c0,0,0,0,0.1,0h0.5c0,3.4,1.9,6.5,4.9,8.1l0,0v2.3l-0.8-0.5c-0.3-0.2-0.6-0.1-0.7,0.2c0,0,0,0,0,0l-1.6,2.8
			c0,0.1-0.1,0.3-0.1,0.4l-7.3,2.4c-0.2,0.1-0.3,0.2-0.3,0.4v0.1h-0.1l-3.2,0.9c-3.2,0.8-5.5,3.5-6,6.8l-0.4,3.1
			c0,0.2,0,0.3,0.1,0.4c0.1,0.1,0.3,0.2,0.4,0.2h48.6c0.2,0,0.3-0.1,0.4-0.2c0.1-0.1,0.2-0.3,0.1-0.4L50,47.5z M26.8,50.1h-2.4
			l-4.2-11.8l3.6,2.1c0.1,0,0.2,0.1,0.3,0.1h0.2c0.2-0.1,0.3-0.1,0.3-0.3l1.1-1.9l1.1,2c0.1,0.1,0.2,0.2,0.3,0.3h0.2
			c0.1,0,0.2,0,0.3-0.1l3.4-1.9L26.8,50.1z M30.9,34.7l1.1,1.8c-0.2,0-0.3,0.1-0.4,0.3l-4.1,2.4l-1.1-1.9l3.2-1.8
			c0.1,0,0.1-0.1,0.2-0.1L30.9,34.7z M35.4,22.4h-0.5v-3.2h0.5c0.9,0,1.6,0.8,1.6,1.7C37,21.7,36.3,22.4,35.4,22.4L35.4,22.4z
			 M36,13.3v1.6h-3.2v-3.3h0.5c0.3,0,0.5-0.2,0.5-0.5c0,0,0,0,0-0.1V7.4C35.2,9,36,11.1,36,13.3L36,13.3z M31.6,4
			c0-0.3,0.2-0.5,0.5-0.5c0.3,0,0.5,0.2,0.5,0.5c0,0,0,0,0,0v6.5h-1.1V4z M25.7,8.4c1.2,0,2.2,1,2.2,2.2s-1,2.2-2.2,2.2
			s-2.2-1-2.2-2.2l0,0C23.5,9.3,24.5,8.4,25.7,8.4z M25.1,2.4h1.1c0.3,0,0.5,0.2,0.5,0.5c0,0,0,0,0,0.1v4.5
			c-0.3-0.1-0.7-0.2-1.1-0.2c-0.4,0-0.7,0.1-1.1,0.2V2.9C24.6,2.7,24.8,2.4,25.1,2.4C25.1,2.4,25.1,2.4,25.1,2.4z M23.5,8.1
			c-0.7,0.6-1.1,1.5-1.1,2.4c0,1.8,1.5,3.2,3.2,3.2s3.2-1.5,3.2-3.2c0-0.9-0.4-1.8-1.1-2.4v-4c0.9,0.1,1.8,0.4,2.7,0.8v6.2
			c0,0.3,0.2,0.5,0.5,0.5c0,0,0,0,0.1,0h0.5v3.3H19.7v-3.3h0.5c0.3,0,0.5-0.2,0.5-0.5c0,0,0,0,0-0.1V4.9c0.9-0.4,1.8-0.6,2.7-0.8
			L23.5,8.1z M18.6,4c0-0.3,0.2-0.5,0.5-0.5c0.3,0,0.5,0.2,0.5,0.5v6.5h-1.1V4z M15.4,13.3c0-2.2,0.8-4.3,2.2-6v3.7
			c0,0.3,0.2,0.5,0.5,0.5c0,0,0,0,0.1,0h0.5v3.3h-3.3L15.4,13.3z M14.8,15.9h21.7c0.6,0,1.1,0.5,1.1,1.1c0,0.6-0.5,1.1-1.1,1.1H14.8
			c-0.6,0-1.1-0.5-1.1-1.1C13.8,16.4,14.2,15.9,14.8,15.9C14.8,15.9,14.8,15.9,14.8,15.9z M15.9,22.4c-0.9,0-1.6-0.8-1.6-1.7
			c0-0.9,0.7-1.6,1.6-1.6h0.5v3.2H15.9z M17.6,23.5v-4.3h16.2v4.3c0,4.5-3.6,8.1-8.1,8.1S17.6,28,17.6,23.5L17.6,23.5z M22.4,32.1
			c2.1,0.8,4.4,0.8,6.5,0v2.4l-3.2,1.9l-3.2-1.9L22.4,32.1z M20.5,34.7l1,0.6c0.1,0.1,0.1,0.1,0.2,0.1l3.2,1.8l-1.1,1.9l-4.4-2.6
			L20.5,34.7z M2.2,47.6c0.4-2.8,2.4-5.2,5.2-5.9l2.8-0.7l-1.3,4.6c-0.1,0.3,0.1,0.6,0.4,0.6l4.7,1.4L12.4,50H1.9L2.2,47.6z
			 M13.7,50.1l1.6-2.4c0.1-0.1,0.1-0.3,0.1-0.5c-0.1-0.2-0.2-0.3-0.4-0.3l-4.9-1.5l1.4-5.1l7.4-2.4l4.4,12.2L13.7,50.1z M27.9,50.1
			l4.4-12.3l7.4,2.4l1.4,5.1l-4.9,1.5c-0.2,0.1-0.3,0.2-0.4,0.3c-0.1,0.2,0,0.3,0.1,0.5l1.6,2.4L27.9,50.1L27.9,50.1z M38.8,50.1
			l-1.6-2.4l4.7-1.4c0.3-0.1,0.4-0.4,0.4-0.6L41.1,41l2.8,0.7c2.8,0.7,4.8,3.1,5.2,5.9l0.3,2.5L38.8,50.1L38.8,50.1z"/>
	</g>
</g>
</svg>
