<?xml version="1.0" encoding="utf-8"?>
<!-- Generator: Adobe Illustrator 27.1.1, SVG Export Plug-In . SVG Version: 6.00 Build 0)  -->
<svg version="1.1" id="Layer_1" xmlns="http://www.w3.org/2000/svg" xmlns:xlink="http://www.w3.org/1999/xlink" x="0px" y="0px"
	 viewBox="0 0 50.9 50.8" style="enable-background:new 0 0 50.9 50.8;" xml:space="preserve">
<style type="text/css">
	.st0{fill:none;stroke:#F5A018;stroke-width:2.5;stroke-linecap:round;stroke-linejoin:round;}
</style>
<g id="Group_55" transform="translate(-299.998 -50.08)">
	<path id="Path_12_" class="st0" d="M338.3,87.4c0,2,1.6,3.6,3.6,3.6c0.2,0,0.4,0,0.6,0c1.9-0.4,3.2-2.2,2.8-4.1
		c-0.2-1.2-1-2.2-2.1-2.6c-0.8-0.4-1.3-1.2-1.3-2.1V68.5"/>
	<path id="Stroke-2_2_" class="st0" d="M304.1,67.3c-0.6,0-1.1-0.4-1.2-1c0,0,0-0.1,0-0.1v-1.3c0-0.7,0.4-1.3,1.1-1.5l8.4-3.1h7.1
		l27.2,3.3c0.7,0.1,1.2,0.6,1.2,1.3v1.3c0,0.7-0.5,1.2-1.2,1.2L304.1,67.3z M319.4,98V55.5c0-0.7-0.5-1.3-1.2-1.4l-4.7-0.8
		c-0.5-0.1-1.1,0.3-1.2,0.8c0,0,0,0.1,0,0.1v43.7h7.1L319.4,98z"/>
</g>
</svg>
