<svg xmlns="http://www.w3.org/2000/svg" width="27.83" height="27.83" viewBox="0 0 27.83 27.83">
  <g id="instagram-svgrepo-com_3_" data-name="instagram-svgrepo-com (3)" transform="translate(0 27.83) rotate(-90)">
    <path id="Path_4" data-name="Path 4" d="M7.59,15.18A7.59,7.59,0,1,0,0,7.59,7.59,7.59,0,0,0,7.59,15.18Zm0-2.53A5.06,5.06,0,1,0,2.53,7.59,5.06,5.06,0,0,0,7.59,12.65Z" transform="translate(6.325 6.325)" fill="#d8d8d8" fill-rule="evenodd"/>
    <path id="Path_5" data-name="Path 5" d="M1.265,0A1.265,1.265,0,1,0,2.53,1.265,1.265,1.265,0,0,0,1.265,0Z" transform="translate(20.24 5.06)" fill="#d8d8d8"/>
    <path id="Path_6" data-name="Path 6" d="M.827,4.144C0,5.768,0,7.893,0,12.144v3.542c0,4.251,0,6.376.827,8A7.59,7.59,0,0,0,4.144,27c1.624.827,3.749.827,8,.827h3.542c4.251,0,6.376,0,8-.827A7.589,7.589,0,0,0,27,23.686c.827-1.624.827-3.749.827-8V12.144c0-4.251,0-6.376-.827-8A7.59,7.59,0,0,0,23.686.827C22.062,0,19.937,0,15.686,0H12.144c-4.251,0-6.376,0-8,.827A7.59,7.59,0,0,0,.827,4.144ZM15.686,2.53H12.144c-2.167,0-3.64,0-4.779.1a5.461,5.461,0,0,0-2.072.457A5.06,5.06,0,0,0,3.082,5.293a5.461,5.461,0,0,0-.457,2.072c-.093,1.139-.1,2.612-.1,4.779v3.542c0,2.167,0,3.64.1,4.779a5.461,5.461,0,0,0,.457,2.072,5.06,5.06,0,0,0,2.211,2.211,5.459,5.459,0,0,0,2.072.457c1.139.093,2.612.1,4.779.1h3.542c2.167,0,3.64,0,4.779-.1a5.459,5.459,0,0,0,2.072-.457,5.06,5.06,0,0,0,2.211-2.211,5.459,5.459,0,0,0,.457-2.072c.093-1.139.1-2.612.1-4.779V12.144c0-2.167,0-3.64-.1-4.779a5.459,5.459,0,0,0-.457-2.072,5.06,5.06,0,0,0-2.211-2.211,5.461,5.461,0,0,0-2.072-.457C19.326,2.532,17.853,2.53,15.686,2.53Z" transform="translate(0 0)" fill="#d8d8d8" fill-rule="evenodd"/>
  </g>
</svg>
