<?xml version="1.0" encoding="utf-8"?>
<!-- Generator: Adobe Illustrator 27.1.1, SVG Export Plug-In . SVG Version: 6.00 Build 0)  -->
<svg version="1.1" id="Layer_1" xmlns="http://www.w3.org/2000/svg" xmlns:xlink="http://www.w3.org/1999/xlink" x="0px" y="0px"
	 viewBox="0 0 286.6 78.7" style="enable-background:new 0 0 286.6 78.7;" xml:space="preserve">
<style type="text/css">
	.st0{fill:url(#Path_3_00000014597674093614393740000007714783111150330545_);}
	.st1{fill:url(#Path_1_00000001648483205247854420000006278102514902022335_);}
	.st2{fill:url(#Path_2_00000136413509316817690300000003317874577289537720_);}
	.st3{enable-background:new    ;}
	.st4{fill:#FFFFFF;}
</style>
<g id="Group_281" transform="translate(884.64 531.311)">
	<g id="Group_1" transform="translate(-884.64 -531.311)">
		
			<linearGradient id="Path_3_00000173873003369886386120000017645783582212390570_" gradientUnits="userSpaceOnUse" x1="-229.5988" y1="16.6793" x2="-229.5988" y2="17.6758" gradientTransform="matrix(85.258 0 0 25.2 19617.3691 -366.532)">
			<stop  offset="0" style="stop-color:#FCA510"/>
			<stop  offset="0.237" style="stop-color:#FCCB2C"/>
			<stop  offset="0.427" style="stop-color:#FEE99F"/>
			<stop  offset="0.848" style="stop-color:#FDD32F"/>
			<stop  offset="1" style="stop-color:#FDB407"/>
		</linearGradient>
		<path id="Path_3" style="fill:url(#Path_3_00000173873003369886386120000017645783582212390570_);" d="M19.8,53.8l2.3,3.2
			L9.4,61.8L41.9,75l33.4-13.3L62.2,57l1.5-3.2l21,8L42,78.9L-0.2,61.8L19.8,53.8z"/>
		
			<linearGradient id="Path_1_00000084524228407677284090000001193408795238913457_" gradientUnits="userSpaceOnUse" x1="-227.114" y1="6.6276" x2="-227.114" y2="7.6249" gradientTransform="matrix(44.609 0 0 63.4481 10173.3574 -420.004)">
			<stop  offset="0" style="stop-color:#FCA510"/>
			<stop  offset="0.237" style="stop-color:#FCCB2C"/>
			<stop  offset="0.427" style="stop-color:#FEE99F"/>
			<stop  offset="0.848" style="stop-color:#FDD32F"/>
			<stop  offset="1" style="stop-color:#FDB407"/>
		</linearGradient>
		<path id="Path_1" style="fill:url(#Path_1_00000084524228407677284090000001193408795238913457_);" d="M23,63.8h-3.2V20L32,12.9
			l8.6,4.6V7.7l12-7.2l11.8,7.2v56h-3.2l0-54.4l-6.8-3.8v27.9l-4-2.4V5.5l-6,3.8v17.9l-3.8-1.8v-4.8L34,17.4V31l-3.4,2.4V17.4
			L23,21.6V63.8z"/>
		
			<linearGradient id="Path_2_00000138557334421403804800000008268537429938044049_" gradientUnits="userSpaceOnUse" x1="-222.8004" y1="9.9533" x2="-222.8004" y2="10.949" gradientTransform="matrix(24.407 0 0 42.236 5480.1191 -389.9888)">
			<stop  offset="0" style="stop-color:#FCA510"/>
			<stop  offset="0.237" style="stop-color:#FCCB2C"/>
			<stop  offset="0.427" style="stop-color:#FEE99F"/>
			<stop  offset="0.848" style="stop-color:#FDD32F"/>
			<stop  offset="1" style="stop-color:#FDB407"/>
		</linearGradient>
		<path id="Path_2" style="fill:url(#Path_2_00000138557334421403804800000008268537429938044049_);" d="M30.1,66.7l3.8,2.2V38.6
			l7-3.6v35.7l1.6,1.8l2-1.8V35l6.4,3.6v30.3l3.6-2.2V36.6l-12-6.2l-12.4,6.2V66.7z"/>
	</g>
	<g id="Group_7" transform="translate(-799.382 -511.781)">
		<g class="st3">
			<path class="st4" d="M8,29.5V11h13.8v3.1H11.7v4.2H21v3.1h-9.3v5.1h10.4v3.1H8z"/>
			<path class="st4" d="M29.5,29.5V14.1H24V11h14.8v3.1h-5.5v15.5H29.5z"/>
			<path class="st4" d="M41.2,29.5V11h3.8v7.3h7.4V11h3.8v18.6h-3.8v-8.2h-7.4v8.2H41.2z"/>
			<path class="st4" d="M59.2,20.3c0-1.9,0.3-3.5,0.9-4.8c0.4-0.9,1-1.8,1.7-2.6c0.8-0.8,1.6-1.3,2.5-1.7c1.2-0.5,2.5-0.8,4-0.8
				c2.7,0,4.9,0.9,6.6,2.6s2.5,4,2.5,7.1c0,3-0.8,5.3-2.5,7c-1.7,1.7-3.8,2.6-6.5,2.6s-4.9-0.8-6.6-2.5C60,25.6,59.2,23.3,59.2,20.3
				z M63,20.2c0,2.1,0.5,3.6,1.4,4.8c0.9,1,2.2,1.7,3.8,1.7c1.6,0,2.7-0.5,3.6-1.6c0.9-1,1.4-2.7,1.4-4.8s-0.5-3.8-1.4-4.8
				c-0.8-1.2-2.1-1.7-3.6-1.7c-1.6,0-2.9,0.5-3.8,1.6C63.5,16.6,63,18.1,63,20.2z"/>
			<path class="st4" d="M79.2,23.4l3.6-0.4c0.3,1.2,0.6,2.1,1.3,2.7c0.6,0.6,1.6,0.9,2.7,0.9s2.1-0.3,2.7-0.8
				c0.6-0.5,0.9-1.2,0.9-1.8c0-0.4-0.1-0.8-0.4-1.2c-0.3-0.3-0.6-0.5-1.3-0.8c-0.4-0.1-1.4-0.4-3-0.8c-1.9-0.5-3.4-1.2-4.3-1.8
				c-1.2-1-1.7-2.2-1.7-3.8c0-0.9,0.3-1.8,0.8-2.6c0.5-0.8,1.3-1.4,2.3-1.9c1-0.4,2.2-0.6,3.6-0.6c2.3,0,4,0.5,5.3,1.6
				c1.3,1,1.8,2.3,1.8,4.2L90,16.4c-0.1-0.9-0.5-1.7-1-2.1c-0.5-0.4-1.3-0.6-2.3-0.6S84.7,14,84,14.3c-0.4,0.3-0.6,0.6-0.6,1.2
				c0,0.4,0.1,0.8,0.5,1.2c0.5,0.4,1.6,0.8,3.5,1.3c1.9,0.5,3.1,0.9,4,1.3c0.9,0.4,1.6,1,2.1,1.9c0.5,0.9,0.8,1.8,0.8,3
				c0,1-0.3,2.1-0.9,3c-0.6,0.9-1.4,1.6-2.5,2.1c-1,0.4-2.5,0.6-4,0.6c-2.3,0-4.2-0.5-5.5-1.7C80.1,27.2,79.5,25.5,79.2,23.4z"/>
			<path class="st4" d="M104.7,29.5V11h5.6l3.4,12.7L117,11h5.6v18.6h-3.5V14.9l-3.6,14.7h-3.6l-3.6-14.7v14.7H104.7z"/>
			<path class="st4" d="M143.1,29.5h-4l-1.6-4.3h-7.4l-1.7,4.3h-4l7.3-18.6h4L143.1,29.5z M136.2,22.1l-2.6-6.9l-2.5,6.9H136.2z"/>
			<path class="st4" d="M147.2,29.5V14.1h-5.5V11h14.8v3.1h-5.5v15.5H147.2z"/>
			<path class="st4" d="M159.1,29.5V11h7.9c1.9,0,3.4,0.1,4.3,0.5c0.9,0.4,1.6,0.9,2.2,1.8c0.5,0.9,0.8,1.8,0.8,3
				c0,1.4-0.4,2.6-1.2,3.5c-0.8,0.9-2.1,1.4-3.6,1.7c0.8,0.5,1.4,1,1.9,1.6c0.5,0.5,1.3,1.6,2.1,3l2.2,3.6h-4.5l-2.7-4
				c-0.9-1.4-1.6-2.3-1.9-2.7c-0.4-0.4-0.8-0.6-1.2-0.8c-0.4-0.1-1-0.3-1.9-0.3h-0.8v7.8h-3.5V29.5z M162.7,18.8h2.7
				c1.8,0,3-0.1,3.4-0.3c0.4-0.1,0.8-0.4,1-0.8s0.4-0.8,0.4-1.4c0-0.6-0.1-1.2-0.5-1.6s-0.8-0.6-1.4-0.8c-0.3,0-1.2,0-2.7,0h-3v4.8
				H162.7z"/>
			<path class="st4" d="M177.6,29.5V11h3.8v18.6H177.6z"/>
			<path class="st4" d="M183.1,29.5l6.4-9.7l-5.7-8.8h4.4l3.8,6l3.6-6h4.3l-5.8,9.1l6.4,9.6h-4.5l-4.2-6.5l-4.2,6.5h-4.4V29.5z"/>
		</g>
	</g>
</g>
</svg>
