<?xml version="1.0" encoding="utf-8"?>
<!-- Generator: Adobe Illustrator 27.1.1, SVG Export Plug-In . SVG Version: 6.00 Build 0)  -->
<svg version="1.1" id="Layer_1" xmlns="http://www.w3.org/2000/svg" xmlns:xlink="http://www.w3.org/1999/xlink" x="0px" y="0px"
	 viewBox="0 0 286.7 78.7" style="enable-background:new 0 0 286.7 78.7;" xml:space="preserve">
<style type="text/css">
	.st0{fill:url(#Path_3_00000053536146244542616210000016755095733583070859_);}
	.st1{fill:url(#Path_1_00000123399841061279091090000001902470175519591826_);}
	.st2{fill:url(#Path_2_00000098216031263225631190000004504901355361023162_);}
	.st3{enable-background:new    ;}
	.st4{fill:#181819;}
</style>
<g id="Group_281" transform="translate(884.64 531.311)">
	<g id="Group_1" transform="translate(-884.64 -531.311)">
		
			<linearGradient id="Path_3_00000055671966576666810930000016968271433100195004_" gradientUnits="userSpaceOnUse" x1="-250.5194" y1="16.6556" x2="-250.5194" y2="17.6521" gradientTransform="matrix(85.258 0 0 25.2 21401.5312 -366.532)">
			<stop  offset="0" style="stop-color:#FCA510"/>
			<stop  offset="0.237" style="stop-color:#FCCB2C"/>
			<stop  offset="0.427" style="stop-color:#FEE99F"/>
			<stop  offset="0.848" style="stop-color:#FDD32F"/>
			<stop  offset="1" style="stop-color:#FDB407"/>
		</linearGradient>
		<path id="Path_3" style="fill:url(#Path_3_00000055671966576666810930000016968271433100195004_);" d="M20.3,53.2l2.3,3.2L10,61.2
			l32.5,13.3l33.4-13.3l-13.2-4.8l1.5-3.2l21,8L42.5,78.3L0.3,61.2L20.3,53.2z"/>
		
			<linearGradient id="Path_1_00000057149248066045734200000002159910888309200047_" gradientUnits="userSpaceOnUse" x1="-247.8027" y1="6.6182" x2="-247.8027" y2="7.6155" gradientTransform="matrix(44.609 0 0 63.4481 11096.7783 -420.004)">
			<stop  offset="0" style="stop-color:#FCA510"/>
			<stop  offset="0.237" style="stop-color:#FCCB2C"/>
			<stop  offset="0.427" style="stop-color:#FEE99F"/>
			<stop  offset="0.848" style="stop-color:#FDD32F"/>
			<stop  offset="1" style="stop-color:#FDB407"/>
		</linearGradient>
		<path id="Path_1" style="fill:url(#Path_1_00000057149248066045734200000002159910888309200047_);" d="M23.5,63.2h-3.2V19.4
			l12.2-7.2l8.6,4.6V7.1l12-7.2l11.8,7.2v56h-3.2l0-54.4l-6.8-3.8v27.9l-4-2.4V4.9l-6,3.8v17.9l-3.8-1.8V20l-6.6-3.2v13.6l-3.4,2.4
			V16.8L23.5,21V63.2z"/>
		
			<linearGradient id="Path_2_00000072256043332653139950000005188560880029671326_" gradientUnits="userSpaceOnUse" x1="-243.0866" y1="9.9392" x2="-243.0866" y2="10.9349" gradientTransform="matrix(24.407 0 0 42.236 5975.7622 -389.9888)">
			<stop  offset="0" style="stop-color:#FCA510"/>
			<stop  offset="0.237" style="stop-color:#FCCB2C"/>
			<stop  offset="0.427" style="stop-color:#FEE99F"/>
			<stop  offset="0.848" style="stop-color:#FDD32F"/>
			<stop  offset="1" style="stop-color:#FDB407"/>
		</linearGradient>
		<path id="Path_2" style="fill:url(#Path_2_00000072256043332653139950000005188560880029671326_);" d="M30.6,66.1l3.8,2.2V38
			l7-3.6v35.7l1.6,1.8l2-1.8V34.4l6.4,3.6v30.3l3.6-2.2V36l-12-6.2L30.6,36V66.1z"/>
	</g>
	<g id="Group_7" transform="translate(-799.382 -511.781)">
		<g class="st3">
			<path class="st4" d="M8.6,28.9V10.4h13.8v3.1H12.2v4.2h9.3v3.1h-9.3v5.1h10.4v3.1H8.6z"/>
			<path class="st4" d="M30,28.9V13.5h-5.5v-3.1h14.8v3.1h-5.5v15.5H30z"/>
			<path class="st4" d="M41.7,28.9V10.4h3.8v7.3h7.4v-7.3h3.8v18.6h-3.8v-8.2h-7.4v8.2H41.7z"/>
			<path class="st4" d="M59.7,19.7c0-1.9,0.3-3.5,0.9-4.8c0.4-0.9,1-1.8,1.7-2.6c0.8-0.8,1.6-1.3,2.5-1.7c1.2-0.5,2.5-0.8,4-0.8
				c2.7,0,4.9,0.9,6.6,2.6s2.5,4,2.5,7.1c0,3-0.8,5.3-2.5,7c-1.7,1.7-3.8,2.6-6.5,2.6s-4.9-0.8-6.6-2.5C60.5,25,59.7,22.7,59.7,19.7
				z M63.5,19.6c0,2.1,0.5,3.6,1.4,4.8c0.9,1,2.2,1.7,3.8,1.7s2.7-0.5,3.6-1.6c0.9-1,1.4-2.7,1.4-4.8s-0.5-3.8-1.4-4.8
				c-0.8-1.2-2.1-1.7-3.6-1.7s-2.9,0.5-3.8,1.6C64,16,63.5,17.5,63.5,19.6z"/>
			<path class="st4" d="M79.7,22.8l3.6-0.4c0.3,1.2,0.6,2.1,1.3,2.7s1.6,0.9,2.7,0.9s2.1-0.3,2.7-0.8c0.6-0.5,0.9-1.2,0.9-1.8
				c0-0.4-0.1-0.8-0.4-1.2c-0.3-0.3-0.6-0.5-1.3-0.8c-0.4-0.1-1.4-0.4-3-0.8c-1.9-0.5-3.4-1.2-4.3-1.8c-1.2-1-1.7-2.2-1.7-3.8
				c0-0.9,0.3-1.8,0.8-2.6s1.3-1.4,2.3-1.9c1-0.4,2.2-0.6,3.6-0.6c2.3,0,4,0.5,5.3,1.6c1.3,1,1.8,2.3,1.8,4.2l-3.8,0.1
				c-0.1-0.9-0.5-1.7-1-2.1s-1.3-0.6-2.3-0.6c-1,0-1.9,0.3-2.6,0.6c-0.4,0.3-0.6,0.6-0.6,1.2c0,0.4,0.1,0.8,0.5,1.2
				c0.5,0.4,1.6,0.8,3.5,1.3c1.9,0.5,3.1,0.9,4,1.3c0.9,0.4,1.6,1,2.1,1.9c0.5,0.9,0.8,1.8,0.8,3c0,1-0.3,2.1-0.9,3
				c-0.6,0.9-1.4,1.6-2.5,2.1c-1,0.4-2.5,0.6-4,0.6c-2.3,0-4.2-0.5-5.5-1.7C80.6,26.6,80,24.9,79.7,22.8z"/>
			<path class="st4" d="M105.2,28.9V10.4h5.6l3.4,12.7l3.4-12.7h5.6v18.6h-3.5V14.3L116,28.9h-3.6l-3.6-14.7v14.7H105.2z"/>
			<path class="st4" d="M143.6,28.9h-4l-1.6-4.3h-7.4l-1.7,4.3h-4l7.3-18.6h4L143.6,28.9z M136.7,21.5l-2.6-6.9l-2.5,6.9H136.7z"/>
			<path class="st4" d="M147.8,28.9V13.5h-5.5v-3.1h14.8v3.1h-5.5v15.5H147.8z"/>
			<path class="st4" d="M159.6,28.9V10.4h7.9c1.9,0,3.4,0.1,4.3,0.5c0.9,0.4,1.6,0.9,2.2,1.8c0.5,0.9,0.8,1.8,0.8,3
				c0,1.4-0.4,2.6-1.2,3.5c-0.8,0.9-2.1,1.4-3.6,1.7c0.8,0.5,1.4,1,1.9,1.6c0.5,0.5,1.3,1.6,2.1,3l2.2,3.6h-4.5l-2.7-4
				c-0.9-1.4-1.6-2.3-1.9-2.7s-0.8-0.6-1.2-0.8c-0.4-0.1-1-0.3-1.9-0.3h-0.8v7.8h-3.5V28.9z M163.2,18.2h2.7c1.8,0,3-0.1,3.4-0.3
				c0.4-0.1,0.8-0.4,1-0.8s0.4-0.8,0.4-1.4s-0.1-1.2-0.5-1.6c-0.4-0.4-0.8-0.6-1.4-0.8c-0.3,0-1.2,0-2.7,0h-3v4.8H163.2z"/>
			<path class="st4" d="M178.2,28.9V10.4h3.8v18.6H178.2z"/>
			<path class="st4" d="M183.6,28.9l6.4-9.7l-5.7-8.8h4.4l3.8,6l3.6-6h4.3l-5.8,9.1l6.4,9.6h-4.5l-4.2-6.5l-4.2,6.5h-4.4V28.9z"/>
		</g>
	</g>
</g>
</svg>
