<?xml version="1.0" encoding="utf-8"?>
<!-- Generator: Adobe Illustrator 27.1.1, SVG Export Plug-In . SVG Version: 6.00 Build 0)  -->
<svg version="1.1" id="Layer_1" xmlns="http://www.w3.org/2000/svg" xmlns:xlink="http://www.w3.org/1999/xlink" x="0px" y="0px"
	 viewBox="0 0 244.3 78.7" style="enable-background:new 0 0 244.3 78.7;" xml:space="preserve">
<style type="text/css">
	.st0{fill:url(#Path_3_00000043418314472471055310000015499757420184756609_);}
	.st1{fill:url(#Path_1_00000065791207222107231850000003449541470762942125_);}
	.st2{fill:url(#Path_2_00000083780940695854338550000015303006345073939076_);}
	.st3{enable-background:new    ;}
	.st4{fill:#FFFFFF;}
</style>
<g id="Group_280" transform="translate(884.64 531.311)">
	<g id="Group_1" transform="translate(-884.64 -531.311)">
		
			<linearGradient id="Path_3_00000072968094362256070090000005114161553271307412_" gradientUnits="userSpaceOnUse" x1="-125.0104" y1="281.6667" x2="-125.0104" y2="280.6667" gradientTransform="matrix(85.258 0 0 -25.2 10700.7656 7151.4683)">
			<stop  offset="0" style="stop-color:#FCA510"/>
			<stop  offset="0.237" style="stop-color:#FCCB2C"/>
			<stop  offset="0.427" style="stop-color:#FEE99F"/>
			<stop  offset="0.848" style="stop-color:#FDD32F"/>
			<stop  offset="1" style="stop-color:#FDB407"/>
		</linearGradient>
		<path id="Path_3" style="fill:url(#Path_3_00000072968094362256070090000005114161553271307412_);" d="M20.1,53.5l2.3,3.2
			L9.7,61.5l32.6,13.3l33.5-13.3l-13.2-4.8l1.5-3.2l21.1,8L42.4,78.7L0,61.5L20.1,53.5z"/>
		
			<linearGradient id="Path_1_00000130610137480827439770000011811235107323968699_" gradientUnits="userSpaceOnUse" x1="-123.653" y1="286.6902" x2="-123.653" y2="285.6902" gradientTransform="matrix(44.609 0 0 -63.4481 5558.4351 18189.9453)">
			<stop  offset="0" style="stop-color:#FCA510"/>
			<stop  offset="0.237" style="stop-color:#FCCB2C"/>
			<stop  offset="0.427" style="stop-color:#FEE99F"/>
			<stop  offset="0.848" style="stop-color:#FDD32F"/>
			<stop  offset="1" style="stop-color:#FDB407"/>
		</linearGradient>
		<path id="Path_1" style="fill:url(#Path_1_00000130610137480827439770000011811235107323968699_);" d="M23.3,63.5h-3.2V19.6
			l12.2-7.2l8.6,4.6V7.2l12-7.2l11.8,7.2v56.2h-3.2L61.5,8.8L54.7,5v28l-4-2.4V5l-6,3.8v18L40.9,25v-4.8L34.3,17v13.6L30.9,33V17
			l-7.6,4.2L23.3,63.5z"/>
		
			<linearGradient id="Path_2_00000079464069097907175710000007204206144533367706_" gradientUnits="userSpaceOnUse" x1="-121.2966" y1="285.0279" x2="-121.2966" y2="284.0279" gradientTransform="matrix(24.407 0 0 -42.236 3003.0735 12068.4512)">
			<stop  offset="0" style="stop-color:#FCA510"/>
			<stop  offset="0.237" style="stop-color:#FCCB2C"/>
			<stop  offset="0.427" style="stop-color:#FEE99F"/>
			<stop  offset="0.848" style="stop-color:#FDD32F"/>
			<stop  offset="1" style="stop-color:#FDB407"/>
		</linearGradient>
		<path id="Path_2" style="fill:url(#Path_2_00000079464069097907175710000007204206144533367706_);" d="M30.4,66.4l3.8,2.2V38.2
			l7-3.6v35.8l1.6,1.8l2-1.8V34.6l6.4,3.6v30.4l3.6-2.2V36.2l-12-6.2l-12.4,6.2L30.4,66.4z"/>
	</g>
	<g id="Group_7" transform="translate(-799.382 -511.781)">
		<g class="st3">
			<path class="st4" d="M1.5,19V4.7h10.6v2.4H4.3v3.2h7.2v2.4H4.3v3.9h8V19H1.5z"/>
			<path class="st4" d="M18,19V7.1h-4.2V4.7h11.4v2.4h-4.2V19H18z"/>
			<path class="st4" d="M27,19V4.7h2.9v5.6h5.7V4.7h2.9V19h-2.9v-6.3h-5.7V19H27z"/>
			<path class="st4" d="M40.9,11.9c0-1.5,0.2-2.7,0.7-3.7c0.3-0.7,0.8-1.4,1.3-2c0.6-0.6,1.2-1,1.9-1.3c0.9-0.4,1.9-0.6,3.1-0.6
				c2.1,0,3.8,0.7,5.1,2c1.3,1.3,1.9,3.1,1.9,5.5c0,2.3-0.6,4.1-1.9,5.4c-1.3,1.3-2.9,2-5,2c-2.1,0-3.8-0.6-5.1-1.9
				C41.5,16,40.9,14.2,40.9,11.9z M43.8,11.8c0,1.6,0.4,2.8,1.1,3.7c0.7,0.8,1.7,1.3,2.9,1.3s2.1-0.4,2.8-1.2
				c0.7-0.8,1.1-2.1,1.1-3.7c0-1.6-0.4-2.9-1.1-3.7C50,7.3,49,6.9,47.8,6.9s-2.2,0.4-2.9,1.2C44.2,9,43.8,10.2,43.8,11.8z"/>
			<path class="st4" d="M56.3,14.3l2.8-0.3c0.2,0.9,0.5,1.6,1,2.1s1.2,0.7,2.1,0.7c0.9,0,1.6-0.2,2.1-0.6c0.5-0.4,0.7-0.9,0.7-1.4
				c0-0.3-0.1-0.6-0.3-0.9c-0.2-0.2-0.5-0.4-1-0.6c-0.3-0.1-1.1-0.3-2.3-0.6c-1.5-0.4-2.6-0.9-3.3-1.4c-0.9-0.8-1.3-1.7-1.3-2.9
				c0-0.7,0.2-1.4,0.6-2c0.4-0.6,1-1.1,1.8-1.5C60,4.6,60.9,4.4,62,4.4c1.8,0,3.1,0.4,4.1,1.2s1.4,1.8,1.4,3.2l-2.9,0.1
				c-0.1-0.7-0.4-1.3-0.8-1.6c-0.4-0.3-1-0.5-1.8-0.5c-0.8,0-1.5,0.2-2,0.5c-0.3,0.2-0.5,0.5-0.5,0.9c0,0.3,0.1,0.6,0.4,0.9
				c0.4,0.3,1.2,0.6,2.7,1s2.4,0.7,3.1,1s1.2,0.8,1.6,1.5s0.6,1.4,0.6,2.3c0,0.8-0.2,1.6-0.7,2.3c-0.5,0.7-1.1,1.2-1.9,1.6
				c-0.8,0.3-1.9,0.5-3.1,0.5c-1.8,0-3.2-0.4-4.2-1.3C57,17.2,56.5,15.9,56.3,14.3z"/>
			<path class="st4" d="M75.9,19V4.7h4.3l2.6,9.8l2.6-9.8h4.3V19H87V7.7L84.2,19h-2.8L78.6,7.7V19H75.9z"/>
			<path class="st4" d="M105.5,19h-3.1l-1.2-3.3h-5.7L94.2,19h-3.1l5.6-14.3h3.1L105.5,19z M100.2,13.3l-2-5.3l-1.9,5.3H100.2z"/>
			<path class="st4" d="M108.7,19V7.1h-4.2V4.7h11.4v2.4h-4.2V19H108.7z"/>
			<path class="st4" d="M117.8,19V4.7h6.1c1.5,0,2.6,0.1,3.3,0.4s1.2,0.7,1.7,1.4c0.4,0.7,0.6,1.4,0.6,2.3c0,1.1-0.3,2-0.9,2.7
				c-0.6,0.7-1.6,1.1-2.8,1.3c0.6,0.4,1.1,0.8,1.5,1.2c0.4,0.4,1,1.2,1.6,2.3l1.7,2.8h-3.5l-2.1-3.1c-0.7-1.1-1.2-1.8-1.5-2.1
				s-0.6-0.5-0.9-0.6c-0.3-0.1-0.8-0.2-1.5-0.2h-0.6v6H117.8z M120.6,10.7h2.1c1.4,0,2.3-0.1,2.6-0.2c0.3-0.1,0.6-0.3,0.8-0.6
				s0.3-0.6,0.3-1.1c0-0.5-0.1-0.9-0.4-1.2c-0.3-0.3-0.6-0.5-1.1-0.6c-0.2,0-0.9,0-2.1,0h-2.3V10.7z"/>
			<path class="st4" d="M132.1,19V4.7h2.9V19H132.1z"/>
			<path class="st4" d="M136.3,19l4.9-7.5l-4.4-6.8h3.4l2.9,4.6l2.8-4.6h3.3l-4.5,7l4.9,7.4h-3.5l-3.2-5l-3.2,5H136.3z"/>
		</g>
		<g class="st3">
			<path class="st4" d="M55.2,33.2v-7.1h1.4V32h3.6v1.2H55.2z"/>
			<path class="st4" d="M61.2,33.2v-7.2h1.4v7.2H61.2z"/>
			<path class="st4" d="M64,33.2v-7.2h2.2l1.3,4.9l1.3-4.9h2.2v7.2h-1.3v-5.6l-1.4,5.6h-1.4l-1.4-5.6v5.6H64z"/>
			<path class="st4" d="M72.3,33.2v-7.2h1.4v7.2H72.3z"/>
			<path class="st4" d="M76.7,33.2v-5.9h-2.1v-1.2h5.7v1.2h-2.1v5.9H76.7z"/>
			<path class="st4" d="M81.2,33.2v-7.2h5.3v1.2h-3.9v1.6h3.6v1.2h-3.6V32h4v1.2H81.2z"/>
			<path class="st4" d="M87.9,26.1h2.6c0.6,0,1,0,1.4,0.1c0.4,0.1,0.8,0.3,1.1,0.7c0.3,0.3,0.5,0.7,0.7,1.2c0.2,0.5,0.2,1,0.2,1.7
				c0,0.6-0.1,1.1-0.2,1.5c-0.2,0.5-0.4,0.9-0.8,1.3c-0.3,0.2-0.6,0.4-1,0.6c-0.3,0.1-0.7,0.2-1.3,0.2h-2.7V26.1z M89.3,27.3V32h1.1
				c0.4,0,0.7,0,0.9-0.1c0.2-0.1,0.4-0.2,0.6-0.3c0.2-0.1,0.3-0.4,0.4-0.7c0.1-0.3,0.1-0.8,0.1-1.3s0-1-0.1-1.3s-0.2-0.5-0.4-0.7
				s-0.4-0.3-0.7-0.3c-0.2,0-0.6-0.1-1.2-0.1H89.3z"/>
		</g>
	</g>
</g>
</svg>
