<svg xmlns="http://www.w3.org/2000/svg" width="57.312" height="56.823" viewBox="0 0 57.312 56.823">
  <path id="construction-industry-and-tertiary-industry-water-use-svgrepo-com" d="M39.051,24.711H51.764v4H39.051Zm13.073,6.8v3.728H47.368v-5.4h-4v5.449a11.045,11.045,0,0,0-10.178,11h5.022a6,6,0,0,1,6-6h7.9v4.489h4V31.508H52.124ZM33.148,52.844a2.608,2.608,0,1,0,5.209,0c0-1.441-2.608-5.7-2.608-5.7s-2.6,4.262-2.6,5.7ZM7.057,41.412h4.335V43.86H7.057Zm0-4.022h4.335v2.448H7.057Zm0,8.05h4.335v2.448H7.057ZM48.962,13.706,36.863.567a1.934,1.934,0,0,0-1.527-.56H34.5L7.53,14.933,2.461,20.683a1.554,1.554,0,0,0,0,2.2,1.767,1.767,0,0,0,.667.42v5.382a4.435,4.435,0,1,0,6.1,4.115H5.9a1.1,1.1,0,1,1-1.1-1.107H6.463V23.6l5.336.494h7.65V25.7a2.888,2.888,0,0,0,2.741,2.741h3.141V48.875H18.4V26.685h-8v4h4V50.363H4V40.445H0v13.92H31.414a4.575,4.575,0,0,1-.26-1.514,10.939,10.939,0,0,1,1.334-4H29.42V45.287h1.807a12.866,12.866,0,0,1,1.007-4.1H29.42V37.357h3.868v1.9a13.213,13.213,0,0,1,3.755-3.808V22.684H49.363a1.821,1.821,0,0,0,.14-.667v-6.8a1.921,1.921,0,0,0-.54-1.507ZM10.318,20.463H7.123l3.195-3.195Zm7.037,0H13.493V17.268h3.862Zm-.447-6.95L30.2,6.343l-4.249,7.17H16.908ZM21.116,20.3V17.268h3.5ZM33.289,33.589H29.42v-4.8h3.868Zm0-9.1H24.231V22.31l4.389-4h4.669v6.176Zm0-10.978H30.621l2.668-4.262Zm6.229,6.95H37.39V17.261h2.128Zm-2.474-6.95V6.876l6.116,6.63H37.044Zm8.7,6.95H43.293V17.261h2.474v3.195Z" transform="translate(0.6 0.601)" fill="#f5a018" stroke="#fff" stroke-width="1.2"/>
</svg>
