<?xml version="1.0" encoding="utf-8"?>
<!-- Generator: Adobe Illustrator 27.1.1, SVG Export Plug-In . SVG Version: 6.00 Build 0)  -->
<svg version="1.1" id="Layer_1" xmlns="http://www.w3.org/2000/svg" xmlns:xlink="http://www.w3.org/1999/xlink" x="0px" y="0px"
	 viewBox="0 0 52.6 42" style="enable-background:new 0 0 52.6 42;" xml:space="preserve">
<style type="text/css">
	.st0{fill:none;stroke:#F5A018;stroke-width:2.5;stroke-linecap:square;}
</style>
<g id="Group_60" transform="translate(-140 -214)">
	<path id="Imported-Layers_2_" class="st0" d="M151.7,247v6.7c0,0.7,0.6,1.3,1.3,1.3l0,0h18.6v-8H151.7z M171.6,247v8h18.6
		c0.7,0,1.3-0.6,1.3-1.3l0,0v-5.3c0-0.7-0.6-1.3-1.3-1.3l0,0L171.6,247z M171.6,231H153c-0.7-0.1-1.3,0.4-1.3,1.1c0,0,0,0.1,0,0.1
		v6.8h20V231z M171.6,231v8h18.6c0.7,0,1.3-0.6,1.3-1.3l0,0v-5.3c0-0.7-0.6-1.3-1.3-1.3l0,0H171.6z M142.3,239
		c-0.7,0-1.3,0.6-1.3,1.3c0,0,0,0,0,0v5.3c0,0.7,0.6,1.3,1.3,1.3l0,0H161v-8H142.3z M161,247h20v-8h-20L161,247z M179.6,223h-17.3
		c-0.7-0.1-1.3,0.4-1.3,1.1c0,0,0,0.1,0,0.1v6.8h20v-6.8C180.9,223.5,180.4,223,179.6,223C179.7,223,179.7,223,179.6,223L179.6,223z
		 M142.3,223c-0.7,0-1.3,0.6-1.3,1.3c0,0,0,0,0,0v5.3c0,0.7,0.6,1.3,1.3,1.3l0,0H161v-6.8c0-0.7-0.6-1.2-1.3-1.2c0,0-0.1,0-0.1,0
		L142.3,223z M153,215c-0.7,0-1.3,0.6-1.3,1.3l0,0v6.7h20v-6.7c0-0.7-0.6-1.3-1.3-1.3c0,0,0,0,0,0H153z"/>
</g>
</svg>
