<svg xmlns="http://www.w3.org/2000/svg" width="20.238" height="25.3" viewBox="0 0 20.238 25.3">
  <g id="Page-1" transform="translate(0 25.3) rotate(-90)">
    <g id="Dribbble-Light-Preview" transform="translate(0 0)">
      <g id="icons" transform="translate(0)">
        <path id="twitter-_154_" data-name="twitter-[#154]" d="M7.957,20.238A14.551,14.551,0,0,0,22.726,5.7c0-.228,0-.442-.015-.671A10.437,10.437,0,0,0,25.3,2.389a10.554,10.554,0,0,1-2.98.809A5.165,5.165,0,0,0,24.6.364a10.277,10.277,0,0,1-3.3,1.24,5.261,5.261,0,0,0-7.345-.215,5.064,5.064,0,0,0-1.5,4.883A14.871,14.871,0,0,1,1.761.934,5.065,5.065,0,0,0,3.369,7.752a5.276,5.276,0,0,1-2.357-.632v.064a5.146,5.146,0,0,0,4.164,5.009,5.238,5.238,0,0,1-2.343.076,5.178,5.178,0,0,0,4.849,3.554,10.407,10.407,0,0,1-6.446,2.189c-.412,0-.825-.025-1.236-.064a14.955,14.955,0,0,0,7.957,2.29" transform="translate(0)" fill="#d8d8d8" fill-rule="evenodd"/>
      </g>
    </g>
  </g>
</svg>
