<svg xmlns="http://www.w3.org/2000/svg" width="88" height="84" viewBox="0 0 88 84">
  <g id="Group_284" data-name="Group 284" transform="translate(-120 -3788)">
    <rect id="Rectangle_57" data-name="Rectangle 57" width="88" height="84" rx="3" transform="translate(120 3788)" fill="#fcc125"/>
    <g id="light-bulb-idea-svgrepo-com" transform="translate(112.325 3803.5)">
      <g id="Group_179" data-name="Group 179" transform="translate(37.471 8.749)">
        <g id="Group_178" data-name="Group 178" transform="translate(0)">
          <path id="Path_43" data-name="Path 43" d="M139.847,109.895a13.185,13.185,0,0,0-.369-22.626.775.775,0,0,0-.775,1.343,11.607,11.607,0,0,1,2.9,2.369l-.293.732-1.379,2.069H137.86a.783.783,0,0,0-.736,1.021l.707,2.122-.8,1.2-1.009-1.514a.775.775,0,0,0-.645-.345H132.55l-1.239-2.477,1.4-2.107a.783.783,0,0,0-.3-1.124l-3.282-1.641-1.21-.726a11.488,11.488,0,0,1,4.805-1.126A11.663,11.663,0,0,1,136,87.48a.775.775,0,1,0,.413-1.495,13.192,13.192,0,0,0-16.7,12.684,13.107,13.107,0,0,0,6.258,11.241,2.534,2.534,0,0,1,1.186,2.145v1.577h-.879a.775.775,0,0,0-.775.775v6.617a5.744,5.744,0,0,0,5.738,5.738h3.308a5.744,5.744,0,0,0,5.738-5.738v-6.617a.775.775,0,0,0-.775-.775h-.879v-1.6A2.517,2.517,0,0,1,139.847,109.895Zm1.414-3.114-.159-.8a.773.773,0,0,0-.115-.278l-1.34-2.01,2.762-3.453,2.051-.293A11.532,11.532,0,0,1,141.261,106.781Zm-14.2,2c-.089-.066-.18-.13-.275-.188a11.566,11.566,0,0,1-5.522-9.92c0-.061,0-.122,0-.183l1.273.849a.776.776,0,0,0,.43.13h2.16l2.254,2.254a.775.775,0,0,0,.548.227h2.829l.879,1.758h-3.708a.783.783,0,0,0-.694,1.122l.683,1.367Zm7.488,16.432h-3.308a4.193,4.193,0,0,1-4.114-3.412h11.536A4.193,4.193,0,0,1,134.552,125.211Zm4.187-4.963H127.056v-1.758h11.683Zm0-5.066v1.758H127.056v-1.758Zm-1.654-3.148v1.6H128.71v-1.577a4.088,4.088,0,0,0-.474-1.9c0-.012.011-.023.015-.035l1.246-3.738c.134-.4-.135-.779-.308-1.124H132.9a.783.783,0,0,0,.693-1.122l-1.654-3.308a.775.775,0,0,0-.694-.429h-2.987L126,98.144a.775.775,0,0,0-.548-.227h-2.246l-1.773-1.182a11.707,11.707,0,0,1,4.953-7.661l1.976,1.186.052.029,2.523,1.261-1.167,1.75a.775.775,0,0,0-.048.777l1.654,3.308a.775.775,0,0,0,.694.429h2.893l1.424,2.136a.783.783,0,0,0,1.29,0l1.654-2.481a.776.776,0,0,0,.09-.675l-.487-1.461h1.406a.775.775,0,0,0,.645-.345l1.654-2.481a.777.777,0,0,0,.047-.081,11.643,11.643,0,0,1,1.836,5.95l-2.637.377a.775.775,0,0,0-.5.283l-3.308,4.135a.775.775,0,0,0-.04.914l1.569,2.354.306,1.528q-.427.323-.888.61A4.058,4.058,0,0,0,137.085,112.035Z" transform="translate(-119.716 -85.511)" fill="#604707"/>
        </g>
      </g>
      <g id="Group_181" data-name="Group 181" transform="translate(49.878)">
        <g id="Group_180" data-name="Group 180">
          <path id="Path_44" data-name="Path 44" d="M248.758,0a.775.775,0,0,0-.775.775V4.911a.775.775,0,0,0,1.551,0V.775A.775.775,0,0,0,248.758,0Z" transform="translate(-247.983)" fill="#604707"/>
        </g>
      </g>
      <g id="Group_183" data-name="Group 183" transform="translate(37.834 2.881)">
        <g id="Group_182" data-name="Group 182" transform="translate(0)">
          <path id="Path_45" data-name="Path 45" d="M140.332,33.754l-2.068-3.581a.775.775,0,0,0-1.343.775l2.068,3.581a.775.775,0,1,0,1.343-.775Z" transform="translate(-136.818 -29.785)" fill="#604707"/>
        </g>
      </g>
      <g id="Group_185" data-name="Group 185" transform="translate(28.534 10.864)">
        <g id="Group_184" data-name="Group 184" transform="translate(0)">
          <path id="Path_46" data-name="Path 46" d="M60.183,113.335,56.6,111.267a.775.775,0,0,0-.775,1.343l3.581,2.068a.775.775,0,1,0,.775-1.343Z" transform="translate(-55.439 -111.163)" fill="#604707"/>
        </g>
      </g>
      <g id="Group_187" data-name="Group 187" transform="translate(25.653 21.719)">
        <g id="Group_186" data-name="Group 186" transform="translate(0)">
          <path id="Path_47" data-name="Path 47" d="M30.564,222.33H26.428a.775.775,0,1,0,0,1.551h4.135a.775.775,0,1,0,0-1.551Z" transform="translate(-25.653 -222.33)" fill="#604707"/>
        </g>
      </g>
      <g id="Group_189" data-name="Group 189" transform="translate(28.535 30.503)">
        <g id="Group_188" data-name="Group 188">
          <path id="Path_48" data-name="Path 48" d="M60.48,312.5a.775.775,0,0,0-1.059-.284l-3.581,2.068a.775.775,0,1,0,.775,1.343l3.581-2.068A.775.775,0,0,0,60.48,312.5Z" transform="translate(-55.453 -312.115)" fill="#604707"/>
        </g>
      </g>
      <g id="Group_191" data-name="Group 191" transform="translate(67.639 30.503)">
        <g id="Group_190" data-name="Group 190">
          <path id="Path_49" data-name="Path 49" d="M408.241,314.287l-3.581-2.068a.775.775,0,1,0-.775,1.343l3.581,2.068a.775.775,0,1,0,.775-1.343Z" transform="translate(-403.497 -312.115)" fill="#604707"/>
        </g>
      </g>
      <g id="Group_193" data-name="Group 193" transform="translate(69.967 21.719)">
        <g id="Group_192" data-name="Group 192" transform="translate(0)">
          <path id="Path_50" data-name="Path 50" d="M432.468,222.33h-4.135a.775.775,0,0,0,0,1.551h4.135a.775.775,0,0,0,0-1.551Z" transform="translate(-427.557 -222.33)" fill="#604707"/>
        </g>
      </g>
      <g id="Group_195" data-name="Group 195" transform="translate(67.641 10.864)">
        <g id="Group_194" data-name="Group 194">
          <path id="Path_51" data-name="Path 51" d="M408.536,111.551a.775.775,0,0,0-1.059-.284l-3.581,2.068a.775.775,0,0,0,.388,1.447.771.771,0,0,0,.387-.1l3.581-2.068A.775.775,0,0,0,408.536,111.551Z" transform="translate(-403.508 -111.163)" fill="#604707"/>
        </g>
      </g>
      <g id="Group_197" data-name="Group 197" transform="translate(59.853 2.881)">
        <g id="Group_196" data-name="Group 196">
          <path id="Path_52" data-name="Path 52" d="M341,29.889a.775.775,0,0,0-1.059.284l-2.068,3.581a.775.775,0,1,0,1.343.775l2.068-3.581A.775.775,0,0,0,341,29.889Z" transform="translate(-337.769 -29.785)" fill="#604707"/>
        </g>
      </g>
    </g>
  </g>
</svg>
